<?xml version="1.0" encoding="UTF-8"?>
<svg id="Layer_1" data-name="Layer 1" xmlns="http://www.w3.org/2000/svg" viewBox="0 0 368.61 91.14">
  <defs>
    <style>
      .cls-1 {
        fill: #fff;
      }

      .cls-2 {
        fill: #404751;
      }

      .cls-3 {
        fill: #71a350;
      }
    </style>
  </defs>
  <g>
    <path class="cls-2" d="m91.41,52.84c.69,3.33,4.28,6.32,9.26,6.32,5.26,0,8.45-2.64,8.45-6.14,0-3.16-2.63-5.11-5.88-6.32l-6-2.07c-7.88-2.58-9.25-7.23-9.25-10.74,0-6.89,6.06-11.08,12.85-11.08,7.14,0,11.88,3.96,13.08,9.53l-5.14,1.55c-.97-4.02-3.83-5.91-7.94-5.91-3.83,0-7.08,2.12-7.08,5.8,0,1.72.51,3.96,5.2,5.74l6.06,2.3c6.57,2.07,9.71,6.55,9.71,10.79,0,7.12-5.6,11.66-13.94,11.66s-13.37-4.48-14.74-10.05l5.37-1.38Z"/>
    <path class="cls-2" d="m127.46,21.78c2.17,0,3.88,1.72,3.88,3.9s-1.71,3.85-3.88,3.85-3.83-1.66-3.83-3.85,1.66-3.9,3.83-3.9m2.8,13.15h-5.54v28.71h5.54v-28.71Z"/>
    <path class="cls-2" d="m170.02,63.4c0,9.53-7.08,13.72-14.91,13.72-6.06,0-9.48-1.89-12.23-4.13l2.23-4.36c2.86,2.53,6.34,3.62,10,3.62,5.54,0,9.37-3.22,9.37-9.36v-3.85c-2.74,3.9-6.51,5.22-10.34,5.22-8.57,0-14.17-6.78-14.17-14.99s5.6-14.99,14.17-14.99c3.83,0,7.6,1.32,10.34,5.22v-4.59h5.54v28.48Zm-15.2-24.17c-5.94,0-9.31,4.59-9.31,10.05s3.37,10.05,9.31,10.05,9.71-4.25,9.77-10.05c-.06-5.8-4-10.05-9.77-10.05"/>
    <path class="cls-2" d="m202.24,47.44c0-6.09-2.8-8.21-5.83-8.21s-9.2,2.01-9.2,11.08v13.32h-5.54v-28.71h5.54v5.74c1.2-4.08,4.91-6.37,9.6-6.37,6.17,0,10.97,3.9,10.97,13.15v16.19h-5.54v-16.19Z"/>
    <path class="cls-2" d="m232.97,63.63h-12.74V23.44h12.74c12.8,0,20.57,9.01,20.57,20.1s-7.77,20.1-20.57,20.1m0-35.48h-7.03v30.78h7.03c9.14,0,14.74-6.89,14.74-15.39s-5.6-15.39-14.74-15.39"/>
    <path class="cls-2" d="m289.93,58.93c-3.66,4.13-8.28,5.34-12.51,5.34-9.94,0-16.11-6.72-16.11-14.87s6.51-15.1,15.37-15.1c7.54,0,14.57,4.88,14.57,15.5h-24.39c-.17,5.57,4.28,9.53,10.63,9.53,3.43,0,6.51-1.15,9.37-3.62l3.09,3.22Zm-22.57-13.44h18.17c-1.54-5.22-5.6-6.32-8.74-6.32-3.37,0-7.54,1.32-9.43,6.32"/>
    <path class="cls-2" d="m313.18,42.22c-.91-2.58-2.69-3.16-4.46-3.16-2.57,0-4.23,1.61-4.23,3.67,0,1.9,1.71,2.87,3.43,3.45l4.11,1.38c5.43,1.66,6.86,5.05,6.86,8.1,0,5.46-4.74,8.61-10.28,8.61-5.03,0-9.71-2.58-11.03-7.52l4.91-1.21c.68,2.3,3.26,3.96,6.17,3.96s4.91-1.66,4.91-3.91c0-1.95-1.6-2.93-3.6-3.62l-3.83-1.32c-4.57-1.38-7.03-3.85-7.03-7.81,0-4.88,3.77-8.55,9.43-8.55,4,0,7.94,1.66,9.54,6.83l-4.91,1.09Z"/>
    <path class="cls-2" d="m343.69,34.93h6.17v.63l-10.46,12.57,4.86,7.41c1.66,2.35,2.46,3.85,5.03,3.85.63,0,2.46-.06,3.71-1.09l1.88,3.73c-2.23,2.35-5.6,2.24-6.23,2.24-5.48,0-7.31-3.73-9.03-6.09l-5.77-9.3v14.76h-5.54V22.12h5.54v24.86l9.83-12.06Z"/>
  </g>
  <g>
    <path class="cls-3" d="m75.32,45.7c-.1-1.9-.35-3.78-.71-5.62-2.76-13.56-12.81-24.45-25.85-28.38l11.95,35.87s-18.13,10.87-20.39,25.62h-1.48v-27.5c2.75-.36,4.88-2.58,4.88-5.26,0-2.94-2.56-5.33-5.7-5.33s-5.7,2.39-5.7,5.33c0,2.68,2.12,4.9,4.89,5.26v27.5h-1.49c-2.25-14.75-20.39-25.62-20.39-25.62L27.41,11.67C11.96,16.25.69,30.63.69,47.64c0,20.73,16.71,37.52,37.35,37.52,18.03,0,33.08-12.86,36.57-29.96.37-1.84.62-3.71.71-5.63.02-.64.05-1.28.05-1.94s-.03-1.29-.05-1.95"/>
    <path class="cls-1" d="m35.72,73.2h1.49v-27.5c-2.77-.36-4.89-2.58-4.89-5.26,0-2.94,2.55-5.33,5.7-5.33s5.7,2.39,5.7,5.33c0,2.68-2.12,4.9-4.88,5.26v27.5h1.48c2.27-14.75,20.39-25.62,20.39-25.62l-11.95-35.87c-3.42-1.03-7-1.58-10.72-1.58s-7.27.55-10.62,1.54l-12.07,35.9s18.14,10.87,20.39,25.62"/>
  </g>
  <path class="cls-2" d="m367.92,16.22c0,5.81-4.51,10.36-10.29,10.36s-10.23-4.55-10.23-10.3,4.45-10.3,10.29-10.3,10.23,4.44,10.23,10.24Zm-1.37,0c0-5.08-3.75-8.93-8.87-8.93s-8.92,3.97-8.92,8.99,3.81,8.99,8.87,8.99,8.92-3.97,8.92-9.05Zm-6.1,1.78l2.65,4.11h-2.01l-2.41-3.73h-3.17v3.73h-1.98v-11.67h4.65c2.91,0,4.71,1.55,4.71,3.97,0,1.78-.9,3.03-2.44,3.59Zm.52-3.59c0-1.49-1.08-2.31-2.94-2.31h-2.56v4.64h2.56c1.86,0,2.94-.85,2.94-2.33Z"/>
</svg>